<?xml version="1.0" encoding="UTF-8"?><svg id="Layer_1" xmlns="http://www.w3.org/2000/svg" viewBox="0 0 1200 1200"><defs><style>.cls-1{fill:#414042;}.cls-2{fill:#4abfae;}</style></defs><path class="cls-1" d="M145.789,825.1563h220.9141v-87.334h-123.1094v-199.0874h105.6465v-89.086h-105.6465v-148.4863h129.2344v-87.3037h-227.0391v611.2974ZM685.6367,243.5059c24.8555,25.4619,42.8711,59.3247,54.5801,101.104,18.0293-31.3081,48.2695-47.792,90.9277-47.792,22.7012,0,48.8906,6.9834,62.0078,17.4624,6.082-17.4624,26.752-80.7832,26.752-80.7832-22.5196-17.0376-55.4434-31.4971-112.7207-31.4971-51.1055,0-94.8262,12.814-121.5469,41.5059ZM775.7324,534.3521h40.1855v200.8618c0,3.4873-8.7343,7.8408-27.9785,7.8408-46.5859,0-62.3418-32.6504-62.707-205.397l.1367.0381c.3652-14.9145-.0156-43.8491-.0156-59.2109,0-213.9834-93.2168-264.626-209.3457-264.626h-108.293v611.2974h112.6367c53.7754,0,86.5957-13.8458,107.418-31.9668-13.7559-24.4317-22.9297-54.9278-28.8301-91.4747-23.334,25.1426-55.2402,30.8604-75.9551,30.8604l-17.455-.8486v-428.8199h16.6054c31.2852,0,98.3848,28.3125,99.0078,182.7359-.5468,15.8169-.8496,33.4839-.8496,53.9414,0,234.043,34.0743,298.6894,165.9024,298.6894,49.7871,0,92.582-7.8847,120.5156-26.1894l.8789-358.0903h-131.8574v80.3584ZM1054.2187,213.8589h-99.5566s1.7441,175.54,1.7441,305.6318c0,154.5786-1.7441,305.6656-1.7441,305.6656h99.5566s-1.7441-151.087-1.7441-305.6656c0-130.0918,1.7441-305.6318,1.7441-305.6318Z"/><rect class="cls-2" x="145.789" y="912.5059" width="908.4297" height="86.7129"/></svg>