<?xml version="1.0" encoding="UTF-8"?><svg id="Layer_1" xmlns="http://www.w3.org/2000/svg" viewBox="0 0 1200 1200"><defs><style>.cls-1{fill:#414042;}.cls-2{fill:#fff;}.cls-3{fill:#4abfae;}</style></defs><rect class="cls-1" x="-20.0005" y="-20.0039" width="1240.0005" height="1240.0078"/><path class="cls-2" d="M145.7886,825.1563h220.91399v-87.334h-123.1093v-199.0874h105.6464v-89.086h-105.6464v-148.4863h129.2343v-87.3037h-227.03899v611.2974ZM685.63668,243.5059c24.8555,25.4619,42.8711,59.3247,54.5801,101.104,18.0293-31.3081,48.2695-47.792,90.9277-47.792,22.7012,0,48.8907,6.9834,62.0078,17.4624,6.0821-17.4624,26.752-80.7832,26.752-80.7832-22.5195-17.0376-55.4434-31.4971-112.7207-31.4971-51.1055,0-94.8262,12.814-121.5469,41.5059ZM775.73238,534.3521h40.18562v200.8618c0,3.4873-8.73442,7.8408-27.97852,7.8408-46.586,0-62.3418-32.6504-62.7071-205.397l.1367.0381c.3653-14.9145-.0156-43.8491-.0156-59.2109,0-213.9834-93.2168-264.626-209.34619-264.626h-108.2929v611.2974h112.6367c53.7754,0,86.5962-13.8458,107.4184-31.9668-13.7558-24.4317-22.9297-54.9278-28.83048-91.4747-23.334,25.1426-55.24031,30.8604-75.95511,30.8604l-17.4551-.8486v-428.8199h16.6055c31.2851,0,98.3852,28.3125,99.0083,182.7359-.5469,15.8169-.84958,33.4839-.84958,53.9414,0,234.043,34.07418,298.6894,165.90228,298.6894,49.7871,0,92.582-7.8847,120.5156-26.1894l.8789-358.0903h-131.8574v80.3584ZM1054.2188,213.8589h-99.55672s1.7442,175.54,1.7442,305.6318c0,154.5786-1.7442,305.6656-1.7442,305.6656h99.55672s-1.7442-151.087-1.7442-305.6656c0-130.0918,1.7442-305.6318,1.7442-305.6318Z"/><rect class="cls-3" x="145.7886" y="912.5059" width="908.4302" height="86.7129"/></svg>